<?xml version="1.0" standalone="no"?>
<!DOCTYPE svg PUBLIC "-//W3C//DTD SVG 20010904//EN"
 "http://www.w3.org/TR/2001/REC-SVG-20010904/DTD/svg10.dtd">
<svg version="1.0" xmlns="http://www.w3.org/2000/svg"
 width="400.000000pt" height="134.000000pt" viewBox="0 0 400.000000 134.000000"
 preserveAspectRatio="xMidYMid meet">

<g transform="translate(0.000000,134.000000) scale(0.100000,-0.100000)"
fill="#000000" stroke="none">
<path d="M485 936 c-9 -14 -15 -39 -13 -58 2 -27 10 -37 43 -54 25 -13 41 -28
43 -42 5 -32 -27 -41 -49 -14 -21 27 -49 29 -49 4 0 -31 37 -62 75 -62 40 0
75 37 75 79 0 35 -8 45 -57 70 -44 22 -55 47 -27 58 10 4 22 -1 29 -10 16 -23
45 -22 45 1 0 51 -87 71 -115 28z"/>
<path d="M690 836 c0 -117 1 -126 19 -126 23 0 28 27 27 153 -1 88 -2 92 -23
95 -23 3 -23 2 -23 -122z"/>
<path d="M820 835 l0 -125 65 0 c58 0 65 2 65 20 0 17 -7 20 -40 20 -39 0 -40
1 -40 35 0 35 0 35 44 35 36 0 44 3 42 18 -2 12 -14 18 -44 20 -37 3 -42 6
-42 27 0 21 5 24 43 27 34 2 42 7 42 23 0 18 -8 20 -67 23 l-68 3 0 -126z"/>
<path d="M1050 835 l0 -125 49 0 c83 0 128 59 87 115 -10 14 -11 25 -3 42 22
50 -24 93 -99 93 l-34 0 0 -125z m85 50 c0 -13 -8 -21 -22 -23 -19 -3 -23 1
-23 23 0 22 4 26 23 23 14 -2 22 -10 22 -23z m3 -77 c19 -19 14 -45 -10 -51
-28 -8 -38 -1 -38 27 0 36 24 48 48 24z"/>
<path d="M1344 944 c-41 -20 -64 -63 -64 -119 0 -42 5 -52 36 -81 29 -28 43
-34 80 -34 59 0 97 21 118 64 21 45 20 84 -4 124 -34 55 -106 76 -166 46z"/>
<path d="M1610 836 l0 -126 65 0 c58 0 65 2 65 20 0 17 -7 20 -40 20 l-39 0
-3 103 c-3 97 -4 102 -25 105 -23 3 -23 2 -23 -122z"/>
<path d="M1838 952 l-38 -3 0 -120 0 -119 71 0 c67 0 73 2 105 34 29 29 34 41
34 83 0 57 -28 110 -62 117 -43 9 -73 11 -110 8z m102 -62 c13 -13 20 -33 20
-60 0 -51 -27 -80 -75 -80 l-35 0 0 80 0 80 35 0 c22 0 43 -8 55 -20z"/>
<path d="M2739 939 c-14 -14 -19 -30 -17 -52 2 -27 11 -36 51 -57 26 -14 50
-33 53 -42 16 -52 -67 -84 -86 -33 -10 28 -30 34 -30 10 0 -22 45 -65 68 -65
35 0 72 38 72 74 0 37 -21 60 -68 77 -35 12 -50 42 -32 64 19 22 61 19 67 -5
3 -11 12 -20 19 -20 19 0 17 13 -7 44 -25 32 -61 34 -90 5z"/>
<path d="M2110 830 c0 -73 4 -120 10 -120 6 0 10 41 10 102 0 56 3 98 7 94 4
-4 24 -49 44 -99 20 -51 43 -93 50 -95 9 -2 29 34 56 100 l42 103 1 -102 c0
-129 19 -140 22 -13 1 50 2 104 3 120 2 26 -1 30 -18 28 -16 -2 -30 -27 -61
-101 -22 -53 -43 -94 -47 -90 -4 5 -24 50 -44 101 -29 71 -41 92 -56 92 -18 0
-19 -9 -19 -120z"/>
<path d="M2460 866 c0 -99 12 -139 46 -155 36 -16 58 -14 88 10 25 20 26 24
26 125 0 63 -4 104 -10 104 -6 0 -10 -38 -10 -93 0 -101 -12 -127 -58 -127
-42 0 -52 25 -52 126 0 77 -3 94 -15 94 -12 0 -15 -16 -15 -84z"/>
<path d="M2938 846 c-4 -144 -8 -136 68 -136 36 0 64 4 64 10 0 6 -25 10 -55
10 l-55 0 0 45 0 45 55 0 c30 0 55 5 55 10 0 6 -25 10 -55 10 l-55 0 0 45 0
45 55 0 c30 0 55 5 55 10 0 6 -28 10 -64 10 l-65 0 -3 -104z"/>
<path d="M3170 850 c0 -94 2 -103 25 -125 25 -26 63 -32 95 -15 27 15 40 64
40 156 0 68 -3 84 -15 84 -12 0 -15 -18 -15 -98 0 -106 -7 -122 -50 -122 -48
0 -60 26 -60 128 0 55 -4 92 -10 92 -6 0 -10 -40 -10 -100z"/>
<path d="M3440 830 c0 -73 4 -120 10 -120 6 0 10 41 10 102 0 56 3 99 6 95 3
-3 23 -48 43 -99 21 -51 44 -94 52 -96 9 -1 28 31 56 100 l42 103 1 -102 c0
-136 19 -138 22 -3 1 55 2 108 2 118 1 10 -6 17 -18 17 -15 0 -28 -22 -60 -97
-22 -54 -42 -98 -45 -98 -3 0 -24 45 -45 100 -30 77 -43 100 -57 100 -17 0
-19 -10 -19 -120z"/>
<path d="M2190 613 c1 -14 27 -43 33 -37 7 7 -14 44 -25 44 -5 0 -8 -3 -8 -7z"/>
<path d="M2160 603 c0 -5 7 -18 15 -29 12 -16 14 -16 15 -3 0 9 -7 22 -15 29
-8 7 -15 8 -15 3z"/>
<path d="M2838 575 c4 -29 0 -36 -19 -44 l-24 -10 23 -7 c23 -6 23 -10 21 -90
-2 -48 1 -85 6 -86 6 -2 11 34 13 82 2 51 8 88 15 93 9 7 9 10 0 14 -8 2 -13
22 -13 44 0 25 -5 39 -13 39 -9 0 -12 -11 -9 -35z"/>
<path d="M2970 595 c0 -11 -12 -15 -46 -15 -27 0 -43 -4 -39 -10 3 -5 24 -10
46 -10 21 0 39 -4 39 -10 0 -5 -16 -10 -35 -10 -35 0 -35 0 -35 -45 l0 -45 60
0 c49 0 60 -3 60 -16 0 -14 -11 -16 -70 -12 -38 2 -70 0 -70 -4 0 -4 32 -8 70
-8 l70 0 0 -31 c0 -26 -3 -31 -20 -26 -11 3 -20 1 -20 -4 0 -5 14 -9 30 -9 28
0 30 3 30 35 0 31 3 35 26 35 15 0 23 4 19 10 -4 6 -15 8 -26 5 -13 -4 -19 -2
-19 9 0 9 7 16 15 16 11 0 15 12 15 45 l0 45 -40 0 c-22 0 -40 5 -40 10 0 6
20 10 44 10 25 0 48 5 51 10 3 6 -3 10 -13 10 -11 0 -22 7 -26 15 -3 8 -13 15
-23 15 -17 -1 -16 -2 1 -15 19 -14 19 -15 -7 -15 -17 0 -27 5 -27 15 0 8 -4
15 -10 15 -5 0 -10 -7 -10 -15z m0 -80 c0 -9 -9 -15 -25 -15 -16 0 -25 6 -25
15 0 9 9 15 25 15 16 0 25 -6 25 -15z m80 0 c0 -10 -10 -15 -30 -15 -20 0 -30
5 -30 15 0 10 10 15 30 15 20 0 30 -5 30 -15z m-80 -40 c0 -9 -9 -15 -25 -15
-16 0 -25 6 -25 15 0 9 9 15 25 15 16 0 25 -6 25 -15z m80 0 c0 -10 -10 -15
-30 -15 -20 0 -30 5 -30 15 0 10 10 15 30 15 20 0 30 -5 30 -15z"/>
<path d="M3170 580 c0 -35 -15 -40 -25 -7 -6 19 -8 16 -15 -21 -5 -23 -12 -46
-15 -51 -3 -5 -1 -12 5 -16 5 -3 12 6 16 20 10 41 34 31 34 -14 0 -33 -4 -40
-25 -45 -14 -4 -25 -11 -25 -16 0 -6 11 -8 25 -4 24 6 25 5 25 -45 0 -28 5
-51 10 -51 6 0 10 27 10 60 0 47 3 60 15 60 8 0 15 5 15 11 0 6 -7 9 -15 5
-12 -4 -15 3 -15 29 0 24 5 35 15 35 8 0 15 5 15 10 0 6 -7 10 -15 10 -10 0
-15 10 -15 30 0 17 -4 30 -10 30 -5 0 -10 -13 -10 -30z"/>
<path d="M3255 583 c-3 -15 -15 -39 -26 -54 -11 -15 -15 -30 -10 -33 5 -3 16
5 25 19 9 14 23 25 31 25 14 0 13 -4 -1 -32 -9 -18 -27 -45 -41 -59 -14 -15
-20 -29 -15 -33 14 -8 58 45 73 89 8 22 20 35 31 35 17 0 17 -3 -2 -52 -11
-29 -38 -71 -62 -95 -50 -51 -43 -71 8 -22 37 34 84 119 84 152 0 9 5 17 11
17 9 0 10 -23 5 -82 -4 -44 -9 -85 -12 -90 -3 -4 -16 -8 -30 -8 -13 0 -24 -4
-24 -10 0 -18 59 -11 69 8 6 11 13 60 17 110 l7 92 -62 0 c-60 0 -61 0 -55 25
3 14 2 25 -4 25 -5 0 -13 -12 -17 -27z"/>
<path d="M3460 575 c-18 -19 -30 -38 -26 -42 3 -4 20 7 37 23 l30 31 35 -32
34 -31 0 -97 c0 -58 4 -97 10 -97 6 0 10 5 10 10 0 6 18 10 39 10 22 0 43 -4
46 -10 14 -22 22 -7 24 40 l1 50 -55 0 c-42 0 -55 3 -55 15 0 11 12 15 45 15
45 0 45 0 45 35 0 24 5 35 15 35 9 0 15 9 15 25 0 22 -4 25 -35 25 -24 0 -35
5 -35 15 0 8 -4 15 -10 15 -5 0 -10 -6 -10 -14 0 -23 -71 -27 -96 -5 -11 11
-22 19 -25 19 -3 0 -20 -16 -39 -35z m228 -27 c-3 -8 -24 -13 -58 -13 -34 0
-55 5 -57 13 -4 9 12 12 57 12 45 0 61 -3 58 -12z m-28 -48 c0 -16 -7 -20 -35
-20 -28 0 -35 4 -35 20 0 16 7 20 35 20 28 0 35 -4 35 -20z m18 -112 c-2 -19
-10 -24 -45 -26 -40 -3 -43 -1 -43 22 0 24 3 26 46 26 41 0 45 -2 42 -22z"/>
<path d="M2080 575 c0 -24 -3 -25 -60 -25 -77 0 -79 -18 -2 -22 l57 -3 0 -93
c0 -67 3 -92 13 -92 9 0 12 26 12 95 l0 95 55 0 c30 0 55 5 55 10 0 6 -25 10
-55 10 -52 0 -55 1 -55 25 0 14 -4 25 -10 25 -5 0 -10 -11 -10 -25z"/>
<path d="M2600 598 c0 -2 -1 -58 -3 -126 -1 -92 1 -122 11 -122 8 0 12 21 12
70 l0 70 61 -31 c37 -18 65 -27 71 -21 5 5 -19 22 -62 41 l-70 33 0 44 c0 24
-4 44 -10 44 -5 0 -10 -1 -10 -2z"/>
<path d="M1400 582 c0 -7 63 -42 75 -42 16 0 0 22 -25 35 -32 17 -50 19 -50 7z"/>
<path d="M2317 583 c-2 -5 -5 -33 -6 -63 -3 -70 -8 -88 -37 -127 -28 -37 -17
-53 14 -20 29 31 41 67 48 148 5 47 3 69 -4 69 -6 0 -13 -3 -15 -7z"/>
<path d="M2390 477 c0 -63 3 -116 6 -120 20 -20 124 62 124 98 0 22 -18 18
-25 -5 -7 -21 -60 -70 -77 -70 -7 0 -8 36 -5 105 4 86 3 105 -9 105 -11 0 -14
-23 -14 -113z"/>
<path d="M3490 545 c0 -8 -9 -15 -20 -15 -18 0 -20 -7 -20 -84 0 -58 -4 -86
-12 -89 -7 -2 -11 -7 -8 -10 3 -4 27 0 53 8 28 8 49 10 52 4 4 -5 11 -9 16 -9
11 0 0 23 -26 55 -16 20 -16 20 -12 -2 3 -13 1 -23 -3 -23 -5 0 -15 -3 -24 -6
-13 -5 -16 1 -16 25 0 29 2 31 38 31 l37 0 -3 50 c-3 35 -8 50 -18 50 -8 0
-14 7 -14 15 0 8 -4 15 -10 15 -5 0 -10 -7 -10 -15z m40 -45 c0 -5 -13 -10
-30 -10 -16 0 -30 5 -30 10 0 6 14 10 30 10 17 0 30 -4 30 -10z m0 -40 c0 -5
-13 -10 -30 -10 -16 0 -30 5 -30 10 0 6 14 10 30 10 17 0 30 -4 30 -10z"/>
<path d="M1579 508 c-26 -52 -81 -97 -140 -114 -58 -18 -77 -34 -39 -34 28 0
100 30 135 56 36 27 80 100 66 109 -6 3 -15 -5 -22 -17z"/>
<path d="M1377 513 c-6 -5 65 -53 79 -53 15 0 -2 24 -28 40 -36 22 -41 23 -51
13z"/>
<path d="M1996 456 c-9 -24 -24 -50 -31 -56 -15 -12 -12 -30 5 -30 15 0 64
110 53 121 -7 7 -16 -5 -27 -35z"/>
<path d="M2154 471 c7 -41 44 -103 56 -96 5 3 -5 31 -21 63 -38 70 -44 76 -35
33z"/>
<path d="M1667 483 c-19 -18 3 -23 113 -23 100 0 120 3 120 15 0 12 -19 15
-113 15 -63 0 -117 -3 -120 -7z"/>
<path d="M2930 375 c12 -13 27 -22 33 -18 6 4 1 14 -12 25 -34 26 -48 22 -21
-7z"/>
</g>
</svg>
