<svg version="1.1" id="Layer_1" xmlns="http://www.w3.org/2000/svg" xmlns:xlink="http://www.w3.org/1999/xlink" x="0px" y="0px"
	 width="100%" viewBox="0 0 400 134" enable-background="new 0 0 400 134" xml:space="preserve">
<path fill="#FCFCFC" opacity="1.000000" stroke="none" 
	d="
M287.000000,135.000000 
	C191.333344,135.000000 96.166687,135.000000 1.000026,135.000000 
	C1.000017,90.333351 1.000017,45.666698 1.000009,1.000038 
	C134.333298,1.000025 267.666595,1.000025 400.999939,1.000013 
	C400.999939,45.666630 400.999939,90.333260 400.999969,134.999939 
	C363.166656,135.000000 325.333344,135.000000 287.000000,135.000000 
M322.706787,80.181465 
	C321.813507,80.089607 320.920227,79.997749 320.004028,78.993950 
	C317.415985,73.942856 318.305664,82.263046 316.409882,79.908737 
	C316.077972,78.767921 315.745605,77.625435 315.413208,76.482956 
	C314.935486,76.456406 314.457764,76.429855 313.980072,76.403297 
	C313.631134,78.928833 313.282227,81.454361 312.332336,84.334343 
	C311.838898,89.031113 314.391296,86.280205 316.681122,86.247894 
	C318.937347,91.149689 312.577942,89.506706 311.696014,92.987244 
	C313.949249,92.690277 315.753357,92.452499 317.642670,92.203499 
	C317.820404,95.471008 317.995483,98.689194 318.170532,101.907387 
	C318.766541,101.890472 319.362579,101.873566 319.958588,101.856651 
	C319.958588,100.006470 319.709503,98.112358 320.025909,96.317963 
	C320.369568,94.369110 321.239197,92.513008 322.082428,91.249542 
	C322.724060,91.831978 323.365723,92.414406 324.077362,93.679047 
	C324.808777,94.479507 325.540192,95.279968 325.918915,96.708122 
	C324.550049,97.682869 323.181152,98.657608 321.374176,99.944313 
	C326.140991,100.781120 329.841248,97.508240 334.125519,89.837265 
	C334.418854,88.896393 334.712219,87.955513 335.129272,86.281212 
	C335.669678,84.534004 336.210083,82.786797 336.750488,81.039581 
	C337.168579,81.150429 337.586670,81.261269 338.004730,81.372116 
	C337.663879,84.592377 337.176880,87.805458 337.018219,91.034676 
	C336.808990,95.294220 338.238708,100.498688 329.089355,99.011635 
	C335.688049,102.147820 338.223969,101.567802 338.704468,97.520386 
	C339.426544,91.438385 339.438782,85.272110 339.763153,78.940384 
	C337.956177,79.031357 336.480896,79.105637 334.152985,79.021889 
	C332.222534,79.021889 330.292053,79.021889 328.137421,79.021889 
	C328.280731,77.414604 328.386627,76.226860 328.492523,75.039124 
	C328.217133,74.944138 327.941742,74.849152 327.666321,74.754166 
	C326.714661,76.495789 325.763000,78.237411 324.045013,80.174385 
	C323.802032,80.276634 323.559052,80.378883 322.706787,80.181465 
M369.702545,82.732140 
	C370.665955,81.054520 371.629395,79.376900 372.504669,77.852745 
	C368.759766,76.687210 366.075287,75.851700 362.887299,74.859505 
	C362.523346,75.134468 361.257874,76.090492 359.212250,76.916389 
	C357.484863,77.246651 355.757507,77.576920 353.997253,77.195465 
	C352.645599,74.871521 351.503143,71.526276 348.123962,76.540970 
	C347.083893,77.597374 346.043823,78.653786 344.482697,79.836197 
	C344.249664,80.369057 344.016663,80.901917 343.783661,81.434776 
	C344.472626,81.642830 345.161560,81.850876 345.852997,82.985291 
	C345.185120,88.759285 347.413788,94.816208 343.807373,100.966339 
	C346.854828,100.244064 349.447601,99.629547 352.720581,99.154602 
	C354.415192,99.774193 356.109772,100.393776 358.185730,101.698410 
	C362.020447,100.134193 365.855011,98.711143 369.688171,102.220146 
	C369.688171,98.522232 369.688171,95.336960 369.688171,91.960022 
	C366.089417,91.960022 362.817413,91.960022 359.531097,91.458549 
	C359.373230,90.813042 359.215363,90.167534 359.987457,89.549301 
	C362.984314,89.262779 365.981201,88.976265 369.015198,88.686203 
	C369.015198,86.623566 369.015198,84.828384 369.702545,82.732140 
M291.926605,95.007652 
	C294.746033,97.369850 297.321259,100.171005 300.477905,101.927071 
	C302.325226,102.954765 305.200623,102.456612 305.020142,98.056992 
	C305.929260,96.410667 306.838379,94.764343 307.888336,92.862961 
	C307.852081,92.834244 306.885742,92.068863 305.919403,91.303474 
	C306.376190,91.269043 306.832977,91.234612 307.289734,91.200180 
	C307.583496,87.940292 307.877258,84.680405 308.188141,81.230537 
	C305.014099,80.999550 302.482544,80.815315 299.950989,80.631081 
	C299.969604,80.237679 299.988251,79.844276 300.006866,79.450882 
	C302.892548,78.881302 305.778229,78.311729 309.117249,77.652679 
	C305.324890,76.820778 302.031158,76.098259 298.469330,75.316925 
	C297.708191,80.216972 291.474304,74.752495 288.322845,78.670128 
	C291.965210,78.923164 294.920410,79.128456 297.875580,79.333755 
	C297.807922,79.549103 297.740295,79.764450 297.672638,79.979805 
	C294.804077,80.922035 291.935486,81.864273 288.772919,81.863632 
	C287.864838,79.273407 286.956757,76.683182 285.720581,73.157112 
	C284.475861,76.652435 283.362976,79.777596 282.094147,83.340637 
	C288.108978,87.753822 281.624298,96.000053 286.063385,101.869751 
	C286.907043,97.570709 286.673370,93.272552 287.003357,89.018105 
	C287.174377,86.812698 288.343384,84.684692 290.147614,82.569534 
	C290.485260,84.966362 290.822906,87.363182 291.191864,89.982300 
	C295.095367,90.159088 298.997986,90.335831 302.900574,90.512581 
	C302.884155,91.184937 302.867706,91.857300 302.851288,92.529655 
	C298.268829,92.529655 293.686371,92.529655 289.103912,92.529655 
	C289.117859,93.011459 289.131775,93.493263 289.145691,93.975060 
	C290.077362,94.080750 291.009003,94.186432 291.926605,95.007652 
M154.194778,52.394279 
	C153.609131,42.444447 145.561172,36.505398 136.870010,39.609325 
	C130.870544,41.751953 127.569794,47.486866 128.663620,53.867603 
	C129.742111,60.159084 134.849243,64.569160 141.151169,64.650810 
	C147.782623,64.736725 152.496918,60.589512 154.194778,52.394279 
M196.883911,62.783142 
	C202.410355,58.019577 203.996201,51.401733 201.034119,45.464088 
	C198.222565,39.828171 192.045334,38.087925 181.303055,40.018597 
	C181.303055,47.864586 181.303055,55.755634 181.303055,64.515175 
	C186.419739,64.028725 191.282440,63.566429 196.883911,62.783142 
M120.842026,58.914597 
	C120.314453,56.036015 119.786880,53.157433 119.387657,50.979153 
	C119.106400,47.662350 119.751625,44.403587 118.467674,42.352406 
	C115.641472,37.837395 110.674644,39.337219 106.073257,39.124584 
	C106.073257,47.600071 106.073257,55.618519 106.073257,63.919842 
	C111.460327,63.588291 117.177376,65.818886 120.842026,58.914597 
M216.039642,40.400669 
	C214.808670,40.037720 213.577713,39.674767 212.450851,39.342514 
	C212.450851,48.078907 212.450851,56.131668 212.450851,64.184433 
	C212.970047,64.199623 213.489227,64.214813 214.008423,64.230003 
	C214.008423,58.202492 214.008423,52.174980 214.008423,46.147469 
	C214.524597,46.071815 215.040771,45.996162 215.556946,45.920509 
	C217.376480,50.434807 219.103561,54.989788 221.062698,59.442669 
	C221.809097,61.139164 223.088120,62.601322 224.124405,64.170273 
	C225.178391,62.662033 226.486282,61.269749 227.238113,59.623508 
	C229.373306,54.948250 231.281433,50.169289 233.278946,45.431156 
	C233.677368,45.526493 234.075775,45.621834 234.474182,45.717171 
	C234.474182,51.857101 234.474182,57.997036 234.474182,64.136971 
	C234.971008,64.180763 235.467819,64.224556 235.964645,64.268349 
	C236.193756,62.884644 236.596085,61.504112 236.621475,60.116684 
	C236.721832,54.628830 236.804398,49.136204 236.661255,43.651405 
	C236.624420,42.239742 235.739334,40.850216 235.243927,39.450516 
	C234.035828,40.525970 232.328430,41.370995 231.707108,42.717258 
	C229.180313,48.192280 226.986526,53.820999 224.200073,60.523289 
	C221.264191,53.292660 218.791061,47.201717 216.039642,40.400669 
M369.646179,40.695747 
	C366.894226,38.549026 365.703735,39.972118 364.659973,42.631512 
	C362.401123,48.386715 359.935974,54.060944 357.144714,60.752300 
	C354.450256,53.998028 352.275787,48.125099 349.711182,42.427784 
	C349.102386,41.075291 347.186401,40.311211 345.338287,38.856640 
	C345.338287,48.327507 345.338287,56.307796 345.338287,64.288086 
	C345.917633,64.312851 346.497009,64.337608 347.076355,64.362373 
	C347.076355,58.384693 347.076355,52.407017 347.076355,46.429337 
	C347.595245,46.408234 348.114166,46.387127 348.633057,46.366024 
	C350.418274,50.773621 352.117004,55.219269 354.031860,59.569805 
	C354.781494,61.273048 356.015930,62.762924 357.029572,64.349953 
	C358.092590,62.843327 359.413818,61.455147 360.169617,59.807579 
	C362.324646,55.109924 364.249542,50.306686 366.265015,45.544994 
	C366.629272,45.636147 366.993530,45.727303 367.357788,45.818459 
	C367.357788,51.994312 367.357788,58.170170 367.357788,64.684219 
	C368.325287,64.236519 369.103027,64.054863 369.109894,63.847672 
	C369.356567,56.398811 369.531403,48.947575 369.646179,40.695747 
M57.319801,63.881001 
	C60.938492,62.176159 62.277412,59.221096 62.091717,55.360085 
	C61.865448,50.655457 58.207298,49.744949 54.772396,48.373795 
	C53.714767,47.951614 52.759212,46.740345 52.277149,45.658569 
	C52.069214,45.191952 53.213089,43.462730 53.690201,43.484074 
	C54.792889,43.533409 55.846027,44.347317 56.951473,44.766121 
	C58.276699,45.268196 59.635414,45.681862 61.295784,46.240112 
	C60.512905,40.426289 58.709023,38.620552 54.509449,38.741802 
	C50.442650,38.859219 47.948227,41.482780 47.686882,45.774090 
	C47.391659,50.621746 50.535046,52.297215 54.397320,53.743908 
	C55.585239,54.188866 56.521046,55.959499 56.996376,57.323765 
	C57.179096,57.848190 55.623856,59.698925 55.092365,59.606861 
	C53.845284,59.390839 52.758526,58.329750 51.568871,57.680332 
	C50.239456,56.954620 48.868061,56.305801 46.985851,55.356739 
	C47.647987,62.776157 49.694965,64.394135 57.319801,63.881001 
M82.973106,47.557487 
	C82.973106,52.966927 82.973106,58.376369 82.973106,63.716305 
	C96.782715,64.460327 96.782715,64.460327 95.797348,60.038528 
	C86.837982,59.945042 86.837982,59.945042 87.393532,54.394283 
	C95.883186,53.464760 95.883186,53.464760 95.746307,49.818836 
	C93.299652,49.818836 90.856590,49.818836 88.197929,49.818836 
	C88.197929,47.905914 88.197929,46.163662 88.197929,44.284485 
	C90.932770,44.045517 93.509918,43.820328 96.120255,43.592239 
	C95.434990,39.644493 91.483521,38.853764 82.967026,40.676609 
	C82.967026,42.613331 82.967026,44.593819 82.973106,47.557487 
M318.023499,40.112988 
	C317.986877,46.258942 317.778870,52.410477 317.978699,58.548737 
	C318.096191,62.158775 320.485504,64.801231 323.984039,64.681534 
	C326.809998,64.584846 331.134674,63.597412 332.093842,61.664795 
	C335.544708,54.711605 333.797119,47.128658 332.738556,39.672459 
	C331.669281,40.646141 331.234528,41.718037 331.203094,42.801647 
	C331.077393,47.130589 331.036743,51.463223 331.042633,55.794388 
	C331.047668,59.498825 329.670135,62.030685 325.614563,62.021866 
	C321.777466,62.013519 320.453644,59.400551 320.349396,56.066498 
	C320.214081,51.738861 320.411316,47.399181 320.213196,43.076237 
	C320.160431,41.924774 319.186249,40.815536 318.023499,40.112988 
M295.360443,39.768288 
	C294.893860,47.762947 294.427277,55.757607 293.971527,63.566803 
	C299.122650,63.566803 303.435150,63.566803 307.747681,63.566803 
	C307.744843,63.110470 307.741974,62.654140 307.739136,62.197807 
	C304.261505,62.017120 300.783905,61.836430 297.305695,61.655712 
	C297.305695,58.699303 297.305695,56.107388 297.305695,53.499401 
	C300.970032,53.259163 304.395569,53.034580 307.821106,52.809998 
	C307.821442,52.261414 307.821777,51.712830 307.822083,51.164246 
	C304.371429,50.973438 300.920746,50.782631 297.486633,50.592735 
	C297.486633,47.598873 297.486633,44.905849 297.486633,42.275314 
	C301.196899,42.098824 304.524872,41.940517 307.852844,41.782211 
	C307.867126,41.064075 307.881409,40.345940 307.895660,39.627804 
	C304.004181,39.627804 300.112671,39.627804 295.360443,39.768288 
M249.985611,43.877281 
	C249.845993,42.417027 249.706390,40.956772 249.474533,38.531677 
	C248.113068,39.831596 247.300812,40.247616 247.303223,40.658848 
	C247.338348,46.639961 247.227005,52.639950 247.681946,58.594841 
	C248.041977,63.307693 251.537872,64.954521 255.823318,64.847000 
	C260.329315,64.733925 262.998260,62.283661 263.207062,57.727631 
	C263.450958,52.406174 263.471954,47.071526 263.438599,41.743557 
	C263.433624,40.951004 262.600952,40.163639 262.151215,39.373875 
	C261.703644,39.492077 261.256073,39.610275 260.808502,39.728474 
	C260.808502,45.332767 260.963440,50.942940 260.751129,56.539177 
	C260.621155,59.965633 258.746979,62.207607 254.995834,61.969425 
	C251.538086,61.749866 250.074493,59.559887 250.033035,56.284889 
	C249.984528,52.453655 249.997772,48.621635 249.985611,43.877281 
M273.355621,62.057583 
	C275.822449,64.934456 279.127991,66.162491 282.174164,63.997185 
	C284.143036,62.597660 285.656311,59.689335 286.109772,57.224617 
	C286.829620,53.311798 283.856995,51.326515 280.503479,50.092030 
	C279.728271,49.806671 278.692261,49.750584 278.224976,49.204796 
	C277.147705,47.946545 275.816254,46.518906 275.629333,45.029305 
	C275.515594,44.123035 277.309875,42.160336 278.301086,42.123447 
	C279.797150,42.067772 281.406189,43.166306 282.838440,43.996479 
	C283.669495,44.478199 284.248596,45.394516 285.814545,47.024357 
	C284.818146,40.853683 283.188354,38.581341 279.744080,39.283134 
	C277.270844,39.787064 274.236481,41.794609 273.173065,43.971802 
	C271.537628,47.320103 273.312256,50.390614 277.033508,51.867947 
	C278.569000,52.477535 280.439545,52.810650 281.494263,53.907497 
	C282.595795,55.053028 283.629059,57.115772 283.345062,58.501442 
	C283.063751,59.873959 281.223419,61.647591 279.843597,61.871944 
	C278.459015,62.097065 276.652252,60.825157 275.309662,59.831963 
	C274.373627,59.139534 273.908356,57.810699 273.232819,56.766140 
	C272.788971,56.974159 272.345154,57.182178 271.901306,57.390194 
	C272.251068,58.729534 272.600861,60.068871 273.355621,62.057583 
M161.847580,58.438034 
	C161.847580,60.211308 161.847580,61.984577 161.847580,63.698589 
	C173.984024,64.936699 174.722733,64.712357 174.110825,60.001205 
	C171.867950,59.889259 169.594070,59.775764 166.800507,59.636333 
	C166.800507,52.892086 166.800507,46.338921 166.800507,39.676003 
	C164.886734,39.676003 163.512482,39.676003 161.845718,39.676003 
	C161.845718,45.836876 161.845718,51.645279 161.847580,58.438034 
M74.744713,50.515686 
	C74.744713,46.774429 74.744713,43.033176 74.744713,38.922855 
	C72.655205,39.126476 71.289169,39.259594 69.898865,39.395077 
	C69.898865,47.731331 69.898865,55.654789 69.898865,63.658474 
	C71.485672,63.658474 72.885246,63.658474 74.743927,63.658474 
	C74.743927,59.413002 74.743927,55.455891 74.744713,50.515686 
M222.225739,80.551155 
	C218.649384,80.282913 215.073029,80.014664 211.298416,79.731544 
	C211.103195,78.150589 210.910507,76.590332 210.717834,75.030067 
	C210.315186,74.914528 209.912521,74.798996 209.509872,74.683456 
	C208.912323,76.339767 208.314758,77.996071 207.656784,79.819878 
	C204.257324,80.006996 200.680954,80.203857 197.104584,80.400711 
	C197.105103,80.990952 197.105637,81.581192 197.106171,82.171432 
	C200.694412,82.393303 204.282654,82.615173 208.296524,82.863358 
	C208.296524,86.263885 208.217682,89.388161 208.319717,92.506531 
	C208.413177,95.363037 208.701950,98.213158 208.904663,101.066086 
	C209.599609,100.990250 210.294556,100.914413 210.989502,100.838577 
	C210.989502,94.813660 210.989502,88.788750 210.989502,83.287529 
	C215.245026,82.559525 218.806366,81.950279 222.225739,80.551155 
M260.359009,85.535606 
	C260.760437,90.535988 259.336731,95.784004 261.245056,100.579941 
	C261.854828,100.537834 262.464569,100.495728 263.074341,100.453629 
	C263.074341,95.991394 263.074341,91.529167 263.074341,87.045334 
	C268.209076,87.488113 271.549377,92.173630 276.195190,91.743935 
	C276.363464,91.180283 276.531738,90.616623 276.700012,90.052971 
	C272.235382,87.907524 267.770752,85.762077 262.806702,83.376640 
	C262.806702,80.762604 262.806702,77.892662 262.806702,75.022713 
	C262.152863,74.968239 261.499023,74.913765 260.845215,74.859291 
	C260.696472,78.091904 260.547729,81.324516 260.359009,85.535606 
M250.670761,89.944923 
	C248.376999,92.231102 246.083237,94.517281 243.789474,96.803459 
	C243.235870,96.487770 242.682251,96.172089 242.128632,95.856400 
	C242.128632,89.181030 242.128632,82.505661 242.128632,75.830299 
	C241.637482,75.842216 241.146332,75.854134 240.655182,75.866058 
	C240.655182,83.785568 240.655182,91.705086 240.655182,99.919281 
	C246.244247,98.696999 250.203384,95.754219 252.825134,91.065216 
	C253.205490,90.384941 252.845673,89.290810 252.828369,88.388184 
	C252.211456,88.675079 251.594528,88.961975 250.670761,89.944923 
M156.566345,87.951195 
	C150.803848,91.564865 145.041351,95.178528 139.671341,98.546074 
	C143.068268,100.169029 152.540909,96.454720 157.574234,90.793205 
	C161.275696,86.629784 162.015442,84.383293 160.336060,81.826080 
	C159.182983,83.722176 158.080170,85.535614 156.566345,87.951195 
M231.924194,86.913033 
	C230.256683,90.903687 228.589172,94.894333 226.625229,99.594414 
	C227.723312,99.052940 229.055161,98.766167 229.834015,97.951019 
	C234.311768,93.264549 236.428513,81.127754 232.599976,75.880417 
	C232.395706,79.264778 232.191437,82.649132 231.924194,86.913033 
M178.523010,89.065849 
	C181.993820,89.092316 185.466980,89.193565 188.933578,89.085197 
	C189.669739,89.062180 190.381989,88.274734 191.105255,87.839485 
	C190.560379,87.232948 190.025513,86.109352 189.469086,86.098564 
	C182.694977,85.967270 175.916931,85.954544 169.142532,86.068001 
	C168.548172,86.077950 167.972321,87.193443 167.387863,87.795433 
	C167.961792,88.230316 168.520493,89.014809 169.112228,89.040543 
	C171.916336,89.162521 174.729431,89.077408 178.523010,89.065849 
M215.722626,87.343430 
	C217.472260,91.015930 219.221893,94.688431 221.121765,98.676254 
	C222.325073,97.560196 222.809418,97.227417 222.766891,97.133629 
	C221.034378,93.313972 219.254379,89.515846 217.480408,85.714989 
	C216.826019,86.041100 216.171631,86.367203 215.722626,87.343430 
M200.930801,94.394829 
	C202.004776,91.473083 203.078735,88.551338 204.152710,85.629593 
	C203.594193,85.446411 203.035675,85.263222 202.477142,85.080040 
	C200.540894,89.038666 198.604645,92.997284 196.668381,96.955902 
	C196.903061,97.269989 197.137756,97.584076 197.372437,97.898163 
	C198.416733,96.937553 199.461029,95.976936 200.930801,94.394829 
M317.886017,74.788841 
	C318.230255,75.401886 318.574493,76.014938 318.918732,76.627998 
	C319.251953,76.356194 319.585144,76.084389 319.918365,75.812584 
	C319.428192,75.213982 318.938019,74.615379 317.886017,74.788841 
z"/>
<path fill="#C2362C" opacity="1.000000" stroke="none" 
	d="
M154.159851,52.815994 
	C152.496918,60.589512 147.782623,64.736725 141.151169,64.650810 
	C134.849243,64.569160 129.742111,60.159084 128.663620,53.867603 
	C127.569794,47.486866 130.870544,41.751953 136.870010,39.609325 
	C145.561172,36.505398 153.609131,42.444447 154.159851,52.815994 
z"/>
<path fill="#1D2524" opacity="1.000000" stroke="none" 
	d="
M196.514526,62.943638 
	C191.282440,63.566429 186.419739,64.028725 181.303055,64.515175 
	C181.303055,55.755634 181.303055,47.864586 181.303055,40.018597 
	C192.045334,38.087925 198.222565,39.828171 201.034119,45.464088 
	C203.996201,51.401733 202.410355,58.019577 196.514526,62.943638 
M194.840927,58.404995 
	C197.946075,55.040806 198.013062,51.125977 196.116608,47.377968 
	C194.143005,43.477489 190.373749,43.561165 186.536652,44.165485 
	C186.536652,49.456379 186.536652,54.619656 186.536652,60.399658 
	C189.409653,59.830154 191.792862,59.357742 194.840927,58.404995 
z"/>
<path fill="#1C2625" opacity="1.000000" stroke="none" 
	d="
M120.688644,59.285957 
	C117.177376,65.818886 111.460327,63.588291 106.073257,63.919842 
	C106.073257,55.618519 106.073257,47.600071 106.073257,39.124584 
	C110.674644,39.337219 115.641472,37.837395 118.467674,42.352406 
	C119.751625,44.403587 119.106400,47.662350 119.387657,50.979153 
	C119.786880,53.157433 120.314453,56.036015 120.688644,59.285957 
M114.722931,59.058365 
	C117.218567,54.904942 116.350647,53.625145 110.556999,53.473961 
	C111.327324,55.747585 107.447784,60.237591 114.722931,59.058365 
z"/>
<path fill="#303636" opacity="1.000000" stroke="none" 
	d="
M216.178772,40.755722 
	C218.791061,47.201717 221.264191,53.292660 224.200073,60.523289 
	C226.986526,53.820999 229.180313,48.192280 231.707108,42.717258 
	C232.328430,41.370995 234.035828,40.525970 235.243927,39.450516 
	C235.739334,40.850216 236.624420,42.239742 236.661255,43.651405 
	C236.804398,49.136204 236.721832,54.628830 236.621475,60.116684 
	C236.596085,61.504112 236.193756,62.884644 235.964645,64.268349 
	C235.467819,64.224556 234.971008,64.180763 234.474182,64.136971 
	C234.474182,57.997036 234.474182,51.857101 234.474182,45.717171 
	C234.075775,45.621834 233.677368,45.526493 233.278946,45.431156 
	C231.281433,50.169289 229.373306,54.948250 227.238113,59.623508 
	C226.486282,61.269749 225.178391,62.662033 224.124405,64.170273 
	C223.088120,62.601322 221.809097,61.139164 221.062698,59.442669 
	C219.103561,54.989788 217.376480,50.434807 215.556946,45.920509 
	C215.040771,45.996162 214.524597,46.071815 214.008423,46.147469 
	C214.008423,52.174980 214.008423,58.202492 214.008423,64.230003 
	C213.489227,64.214813 212.970047,64.199623 212.450851,64.184433 
	C212.450851,56.131668 212.450851,48.078907 212.450851,39.342514 
	C213.577713,39.674767 214.808670,40.037720 216.178772,40.755722 
z"/>
<path fill="#323937" opacity="1.000000" stroke="none" 
	d="
M369.681152,41.096207 
	C369.531403,48.947575 369.356567,56.398811 369.109894,63.847672 
	C369.103027,64.054863 368.325287,64.236519 367.357788,64.684219 
	C367.357788,58.170170 367.357788,51.994312 367.357788,45.818459 
	C366.993530,45.727303 366.629272,45.636147 366.265015,45.544994 
	C364.249542,50.306686 362.324646,55.109924 360.169617,59.807579 
	C359.413818,61.455147 358.092590,62.843327 357.029602,64.349960 
	C356.015930,62.762924 354.781494,61.273048 354.031860,59.569805 
	C352.117004,55.219269 350.418274,50.773621 348.633057,46.366024 
	C348.114166,46.387127 347.595245,46.408234 347.076355,46.429337 
	C347.076355,52.407017 347.076355,58.384693 347.076355,64.362373 
	C346.497009,64.337608 345.917633,64.312851 345.338287,64.288086 
	C345.338287,56.307796 345.338287,48.327507 345.338287,38.856640 
	C347.186401,40.311211 349.102386,41.075291 349.711182,42.427784 
	C352.275787,48.125099 354.450256,53.998028 357.144714,60.752300 
	C359.935974,54.060944 362.401123,48.386715 364.659973,42.631512 
	C365.703735,39.972118 366.894226,38.549026 369.681152,41.096207 
z"/>
<path fill="#1E2526" opacity="1.000000" stroke="none" 
	d="
M289.066895,82.806511 
	C291.935486,81.864273 294.804077,80.922035 297.672638,79.979805 
	C297.740295,79.764450 297.807922,79.549103 297.875580,79.333755 
	C294.920410,79.128456 291.965210,78.923164 288.322845,78.670128 
	C291.474304,74.752495 297.708191,80.216972 298.469330,75.316925 
	C302.031158,76.098259 305.324890,76.820778 309.117249,77.652679 
	C305.778229,78.311729 302.892548,78.881302 300.006866,79.450882 
	C299.988251,79.844276 299.969604,80.237679 299.950989,80.631081 
	C302.482544,80.815315 305.014099,80.999550 308.188141,81.230537 
	C307.877258,84.680405 307.583496,87.940292 307.289734,91.200180 
	C306.832977,91.234612 306.376190,91.269043 305.919403,91.303474 
	C306.885742,92.068863 307.852081,92.834244 307.888336,92.862961 
	C306.838379,94.764343 305.929260,96.410667 304.558167,98.516357 
	C303.567108,97.464668 303.038025,95.953613 302.456268,94.292114 
	C299.084045,94.292114 295.512360,94.292114 291.940674,94.292114 
	C291.009003,94.186432 290.077362,94.080750 289.145691,93.975060 
	C289.131775,93.493263 289.117859,93.011459 289.103912,92.529655 
	C293.686371,92.529655 298.268829,92.529655 302.851288,92.529655 
	C302.867706,91.857300 302.884155,91.184937 302.900574,90.512581 
	C298.997986,90.335831 295.095367,90.159088 291.191864,89.982300 
	C290.822906,87.363182 290.485260,84.966362 289.595001,82.583046 
	C289.042389,82.596558 289.066895,82.806511 289.066895,82.806511 
z"/>
<path fill="#242E2B" opacity="1.000000" stroke="none" 
	d="
M56.961132,63.965477 
	C49.694965,64.394135 47.647987,62.776157 46.985851,55.356739 
	C48.868061,56.305801 50.239456,56.954620 51.568871,57.680332 
	C52.758526,58.329750 53.845284,59.390839 55.092365,59.606861 
	C55.623856,59.698925 57.179096,57.848190 56.996376,57.323765 
	C56.521046,55.959499 55.585239,54.188866 54.397320,53.743908 
	C50.535046,52.297215 47.391659,50.621746 47.686882,45.774090 
	C47.948227,41.482780 50.442650,38.859219 54.509449,38.741802 
	C58.709023,38.620552 60.512905,40.426289 61.295784,46.240112 
	C59.635414,45.681862 58.276699,45.268196 56.951473,44.766121 
	C55.846027,44.347317 54.792889,43.533409 53.690201,43.484074 
	C53.213089,43.462730 52.069214,45.191952 52.277149,45.658569 
	C52.759212,46.740345 53.714767,47.951614 54.772396,48.373795 
	C58.207298,49.744949 61.865448,50.655457 62.091717,55.360085 
	C62.277412,59.221096 60.938492,62.176159 56.961132,63.965477 
z"/>
<path fill="#1C2624" opacity="1.000000" stroke="none" 
	d="
M82.970062,47.065895 
	C82.967026,44.593819 82.967026,42.613331 82.967026,40.676609 
	C91.483521,38.853764 95.434990,39.644493 96.120255,43.592239 
	C93.509918,43.820328 90.932770,44.045517 88.197929,44.284485 
	C88.197929,46.163662 88.197929,47.905914 88.197929,49.818836 
	C90.856590,49.818836 93.299652,49.818836 95.746307,49.818836 
	C95.883186,53.464760 95.883186,53.464760 87.393532,54.394283 
	C86.837982,59.945042 86.837982,59.945042 95.797348,60.038528 
	C96.782715,64.460327 96.782715,64.460327 82.973106,63.716305 
	C82.973106,58.376369 82.973106,52.966927 82.970062,47.065895 
z"/>
<path fill="#323937" opacity="1.000000" stroke="none" 
	d="
M318.329315,39.899948 
	C319.186249,40.815536 320.160431,41.924774 320.213196,43.076237 
	C320.411316,47.399181 320.214081,51.738861 320.349396,56.066498 
	C320.453644,59.400551 321.777466,62.013519 325.614563,62.021866 
	C329.670135,62.030685 331.047668,59.498825 331.042633,55.794388 
	C331.036743,51.463223 331.077393,47.130589 331.203094,42.801647 
	C331.234528,41.718037 331.669281,40.646141 332.738556,39.672459 
	C333.797119,47.128658 335.544708,54.711605 332.093842,61.664795 
	C331.134674,63.597412 326.809998,64.584846 323.984039,64.681534 
	C320.485504,64.801231 318.096191,62.158775 317.978699,58.548737 
	C317.778870,52.410477 317.986877,46.258942 318.329315,39.899948 
z"/>
<path fill="#2A302F" opacity="1.000000" stroke="none" 
	d="
M295.790833,39.698044 
	C300.112671,39.627804 304.004181,39.627804 307.895660,39.627804 
	C307.881409,40.345940 307.867126,41.064075 307.852844,41.782211 
	C304.524872,41.940517 301.196899,42.098824 297.486633,42.275314 
	C297.486633,44.905849 297.486633,47.598873 297.486633,50.592735 
	C300.920746,50.782631 304.371429,50.973438 307.822083,51.164246 
	C307.821777,51.712830 307.821442,52.261414 307.821106,52.809998 
	C304.395569,53.034580 300.970032,53.259163 297.305695,53.499401 
	C297.305695,56.107388 297.305695,58.699303 297.305695,61.655712 
	C300.783905,61.836430 304.261505,62.017120 307.739136,62.197807 
	C307.741974,62.654140 307.744843,63.110470 307.747681,63.566803 
	C303.435150,63.566803 299.122650,63.566803 293.971527,63.566803 
	C294.427277,55.757607 294.893860,47.762947 295.790833,39.698044 
z"/>
<path fill="#2A2F2E" opacity="1.000000" stroke="none" 
	d="
M249.984924,44.333618 
	C249.997772,48.621635 249.984528,52.453655 250.033035,56.284889 
	C250.074493,59.559887 251.538086,61.749866 254.995834,61.969425 
	C258.746979,62.207607 260.621155,59.965633 260.751129,56.539177 
	C260.963440,50.942940 260.808502,45.332767 260.808502,39.728474 
	C261.256073,39.610275 261.703644,39.492077 262.151215,39.373875 
	C262.600952,40.163639 263.433624,40.951004 263.438599,41.743557 
	C263.471954,47.071526 263.450958,52.406174 263.207062,57.727631 
	C262.998260,62.283661 260.329315,64.733925 255.823318,64.847000 
	C251.537872,64.954521 248.041977,63.307693 247.681946,58.594841 
	C247.227005,52.639950 247.338348,46.639961 247.303223,40.658848 
	C247.300812,40.247616 248.113068,39.831596 249.474533,38.531677 
	C249.706390,40.956772 249.845993,42.417027 249.984924,44.333618 
z"/>
<path fill="#2F3535" opacity="1.000000" stroke="none" 
	d="
M273.153137,61.732895 
	C272.600861,60.068871 272.251068,58.729534 271.901306,57.390194 
	C272.345154,57.182178 272.788971,56.974159 273.232819,56.766140 
	C273.908356,57.810699 274.373627,59.139534 275.309662,59.831963 
	C276.652252,60.825157 278.459015,62.097065 279.843597,61.871944 
	C281.223419,61.647591 283.063751,59.873959 283.345062,58.501442 
	C283.629059,57.115772 282.595795,55.053028 281.494263,53.907497 
	C280.439545,52.810650 278.569000,52.477535 277.033508,51.867947 
	C273.312256,50.390614 271.537628,47.320103 273.173065,43.971802 
	C274.236481,41.794609 277.270844,39.787064 279.744080,39.283134 
	C283.188354,38.581341 284.818146,40.853683 285.814545,47.024357 
	C284.248596,45.394516 283.669495,44.478199 282.838440,43.996479 
	C281.406189,43.166306 279.797150,42.067772 278.301086,42.123447 
	C277.309875,42.160336 275.515594,44.123035 275.629333,45.029305 
	C275.816254,46.518906 277.147705,47.946545 278.224976,49.204796 
	C278.692261,49.750584 279.728271,49.806671 280.503479,50.092030 
	C283.856995,51.326515 286.829620,53.311798 286.109772,57.224617 
	C285.656311,59.689335 284.143036,62.597660 282.174164,63.997185 
	C279.127991,66.162491 275.822449,64.934456 273.153137,61.732895 
z"/>
<path fill="#222A2B" opacity="1.000000" stroke="none" 
	d="
M354.030121,77.907181 
	C355.757507,77.576920 357.484863,77.246651 359.620728,77.223534 
	C359.962830,77.850235 359.944611,78.172523 359.672791,78.604416 
	C358.966461,79.375633 358.561890,80.039978 358.110535,81.129463 
	C358.062653,82.125023 358.061615,82.695450 357.755432,83.118256 
	C356.843964,82.543030 356.237640,82.115425 354.929016,81.192528 
	C354.929016,85.266090 354.929016,88.561714 354.929016,91.837639 
	C352.342896,91.964172 350.265961,92.065796 348.132385,92.170181 
	C348.132385,94.213310 348.132385,95.948090 348.132385,97.185127 
	C349.691132,97.915001 350.865753,98.465019 352.040375,99.015038 
	C349.447601,99.629547 346.854828,100.244064 343.807373,100.966339 
	C347.413788,94.816208 345.185120,88.759285 346.126282,82.296394 
	C345.934296,80.975067 345.469025,80.342628 345.003754,79.710190 
	C346.043823,78.653786 347.083893,77.597374 348.489197,76.754517 
	C349.863037,81.230621 351.715973,80.839821 354.030121,77.907181 
z"/>
<path fill="#1F2726" opacity="1.000000" stroke="none" 
	d="
M161.846649,57.945858 
	C161.845718,51.645279 161.845718,45.836876 161.845718,39.676003 
	C163.512482,39.676003 164.886734,39.676003 166.800507,39.676003 
	C166.800507,46.338921 166.800507,52.892086 166.800507,59.636333 
	C169.594070,59.775764 171.867950,59.889259 174.110825,60.001205 
	C174.722733,64.712357 173.984024,64.936699 161.847580,63.698589 
	C161.847580,61.984577 161.847580,60.211308 161.846649,57.945858 
z"/>
<path fill="#303A37" opacity="1.000000" stroke="none" 
	d="
M74.744324,51.007233 
	C74.743927,55.455891 74.743927,59.413002 74.743927,63.658474 
	C72.885246,63.658474 71.485672,63.658474 69.898865,63.658474 
	C69.898865,55.654789 69.898865,47.731331 69.898865,39.395077 
	C71.289169,39.259594 72.655205,39.126476 74.744713,38.922855 
	C74.744713,43.033176 74.744713,46.774429 74.744324,51.007233 
z"/>
<path fill="#EBF2F2" opacity="1.000000" stroke="none" 
	d="
M352.380493,99.084824 
	C350.865753,98.465019 349.691132,97.915001 348.132385,97.185127 
	C348.132385,95.948090 348.132385,94.213310 348.132385,92.170181 
	C350.265961,92.065796 352.342896,91.964172 354.929016,91.837639 
	C354.929016,88.561714 354.929016,85.266090 354.929016,81.192528 
	C356.237640,82.115425 356.843964,82.543030 358.037140,83.510971 
	C359.749878,83.697708 360.875732,83.344116 362.425964,83.051735 
	C365.214355,83.192993 368.293732,82.570511 366.289276,87.187798 
	C363.789093,86.923241 361.169189,86.646027 357.880005,86.297989 
	C358.299927,87.447792 358.678711,88.484909 359.057495,89.522034 
	C359.215363,90.167534 359.373230,90.813042 359.053894,92.149536 
	C358.988434,93.517647 359.400146,94.194763 359.825867,94.824127 
	C359.839905,94.776382 359.890472,94.690674 359.476929,94.412643 
	C358.643707,96.427528 358.224060,98.720444 357.804382,101.013359 
	C356.109772,100.393776 354.415192,99.774193 352.380493,99.084824 
z"/>
<path fill="#454A4A" opacity="1.000000" stroke="none" 
	d="
M222.296722,80.946091 
	C218.806366,81.950279 215.245026,82.559525 210.989502,83.287529 
	C210.989502,88.788750 210.989502,94.813660 210.989502,100.838577 
	C210.294556,100.914413 209.599609,100.990250 208.904663,101.066086 
	C208.701950,98.213158 208.413177,95.363037 208.319717,92.506531 
	C208.217682,89.388161 208.296524,86.263885 208.296524,82.863358 
	C204.282654,82.615173 200.694412,82.393303 197.106171,82.171432 
	C197.105637,81.581192 197.105103,80.990952 197.104584,80.400711 
	C200.680954,80.203857 204.257324,80.006996 207.656784,79.819878 
	C208.314758,77.996071 208.912323,76.339767 209.509872,74.683456 
	C209.912521,74.798996 210.315186,74.914528 210.717834,75.030067 
	C210.910507,76.590332 211.103195,78.150589 211.298416,79.731544 
	C215.073029,80.014664 218.649384,80.282913 222.296722,80.946091 
z"/>
<path fill="#353A3A" opacity="1.000000" stroke="none" 
	d="
M260.378998,85.046371 
	C260.547729,81.324516 260.696472,78.091904 260.845215,74.859291 
	C261.499023,74.913765 262.152863,74.968239 262.806702,75.022713 
	C262.806702,77.892662 262.806702,80.762604 262.806702,83.376640 
	C267.770752,85.762077 272.235382,87.907524 276.700012,90.052971 
	C276.531738,90.616623 276.363464,91.180283 276.195190,91.743935 
	C271.549377,92.173630 268.209076,87.488113 263.074341,87.045334 
	C263.074341,91.529167 263.074341,95.991394 263.074341,100.453629 
	C262.464569,100.495728 261.854828,100.537834 261.245056,100.579941 
	C259.336731,95.784004 260.760437,90.535988 260.378998,85.046371 
z"/>
<path fill="#353A3A" opacity="1.000000" stroke="none" 
	d="
M250.824188,89.596893 
	C251.594528,88.961975 252.211456,88.675079 252.828369,88.388184 
	C252.845673,89.290810 253.205490,90.384941 252.825134,91.065216 
	C250.203384,95.754219 246.244247,98.696999 240.655182,99.919281 
	C240.655182,91.705086 240.655182,83.785568 240.655182,75.866058 
	C241.146332,75.854134 241.637482,75.842216 242.128632,75.830299 
	C242.128632,82.505661 242.128632,89.181030 242.128632,95.856400 
	C242.682251,96.172089 243.235870,96.487770 243.789474,96.803459 
	C246.083237,94.517281 248.376999,92.231102 250.824188,89.596893 
z"/>
<path fill="#282F2E" opacity="1.000000" stroke="none" 
	d="
M312.933289,83.979897 
	C313.282227,81.454361 313.631134,78.928833 313.980072,76.403297 
	C314.457764,76.429855 314.935486,76.456406 315.413208,76.482956 
	C315.745605,77.625435 316.077972,78.767921 316.409882,79.908737 
	C318.305664,82.263046 317.415985,73.942856 320.157043,79.706825 
	C321.179291,80.829811 322.048523,81.239922 322.525452,81.840393 
	C321.199677,83.860519 320.266144,85.690292 319.007812,88.156769 
	C321.538666,88.002556 322.498383,87.944077 323.389343,88.199921 
	C322.840210,89.214996 322.359833,89.915733 321.879486,90.616470 
	C321.239197,92.513008 320.369568,94.369110 320.025909,96.317963 
	C319.709503,98.112358 319.958588,100.006470 319.958588,101.856651 
	C319.362579,101.873566 318.766541,101.890472 318.170532,101.907387 
	C317.995483,98.689194 317.820404,95.471008 317.642670,92.203499 
	C315.753357,92.452499 313.949249,92.690277 311.696014,92.987244 
	C312.577942,89.506706 318.937347,91.149689 316.273285,85.706894 
	C314.888062,84.770569 313.910675,84.375237 312.933289,83.979897 
z"/>
<path fill="#E7EDED" opacity="1.000000" stroke="none" 
	d="
M323.458099,87.885597 
	C322.498383,87.944077 321.538666,88.002556 319.007812,88.156769 
	C320.266144,85.690292 321.199677,83.860519 322.816040,81.811981 
	C323.572815,81.971031 323.646698,82.348854 323.453308,82.884995 
	C322.840057,83.596794 322.494080,84.150276 322.148071,84.703758 
	C322.358154,84.872261 322.568237,85.040764 322.778320,85.209259 
	C323.368927,84.757385 323.959534,84.305519 324.888672,83.691299 
	C327.055359,78.911568 331.286469,82.640503 334.009491,81.407837 
	C333.824799,82.872147 333.347931,83.970573 333.473206,84.995399 
	C333.561798,85.720093 334.465637,86.345123 335.005554,87.014641 
	C334.712219,87.955513 334.418854,88.896393 333.642761,89.601074 
	C330.863861,91.603401 328.567749,93.841919 326.271606,96.080429 
	C325.540192,95.279968 324.808777,94.479507 324.398193,93.296700 
	C330.559448,87.732086 331.409424,85.737831 329.551331,84.124451 
	C327.317291,85.503456 325.387695,86.694527 323.458099,87.885597 
z"/>
<path fill="#585E5C" opacity="1.000000" stroke="none" 
	d="
M288.919922,82.335068 
	C289.066895,82.806511 289.042389,82.596558 289.051971,82.559143 
	C288.343384,84.684692 287.174377,86.812698 287.003357,89.018105 
	C286.673370,93.272552 286.907043,97.570709 286.063385,101.869751 
	C281.624298,96.000053 288.108978,87.753822 282.094147,83.340637 
	C283.362976,79.777596 284.475861,76.652435 285.720581,73.157112 
	C286.956757,76.683182 287.864838,79.273407 288.919922,82.335068 
z"/>
<path fill="#353A3A" opacity="1.000000" stroke="none" 
	d="
M156.771851,87.650124 
	C158.080170,85.535614 159.182983,83.722176 160.336060,81.826080 
	C162.015442,84.383293 161.275696,86.629784 157.574234,90.793205 
	C152.540909,96.454720 143.068268,100.169029 139.671341,98.546074 
	C145.041351,95.178528 150.803848,91.564865 156.771851,87.650124 
z"/>
<path fill="#262C2A" opacity="1.000000" stroke="none" 
	d="
M335.067413,86.647926 
	C334.465637,86.345123 333.561798,85.720093 333.473206,84.995399 
	C333.347931,83.970573 333.824799,82.872147 334.248169,81.262169 
	C334.636597,80.206078 334.821136,79.692993 335.005676,79.179916 
	C336.480896,79.105637 337.956177,79.031357 339.763153,78.940384 
	C339.438782,85.272110 339.426544,91.438385 338.704468,97.520386 
	C338.223969,101.567802 335.688049,102.147820 329.089355,99.011635 
	C338.238708,100.498688 336.808990,95.294220 337.018219,91.034676 
	C337.176880,87.805458 337.663879,84.592377 338.004730,81.372116 
	C337.586670,81.261269 337.168579,81.150429 336.750488,81.039581 
	C336.210083,82.786797 335.669678,84.534004 335.067413,86.647926 
z"/>
<path fill="#373B3B" opacity="1.000000" stroke="none" 
	d="
M231.955688,86.473267 
	C232.191437,82.649132 232.395706,79.264778 232.599976,75.880417 
	C236.428513,81.127754 234.311768,93.264549 229.834015,97.951019 
	C229.055161,98.766167 227.723312,99.052940 226.625229,99.594414 
	C228.589172,94.894333 230.256683,90.903687 231.955688,86.473267 
z"/>
<path fill="#D3D8D9" opacity="1.000000" stroke="none" 
	d="
M291.933655,94.649887 
	C295.512360,94.292114 299.084045,94.292114 302.456268,94.292114 
	C303.038025,95.953613 303.567108,97.464668 304.512268,98.920807 
	C305.200623,102.456612 302.325226,102.954765 300.477905,101.927071 
	C297.321259,100.171005 294.746033,97.369850 291.933655,94.649887 
z"/>
<path fill="#222829" opacity="1.000000" stroke="none" 
	d="
M178.031174,89.065956 
	C174.729431,89.077408 171.916336,89.162521 169.112228,89.040543 
	C168.520493,89.014809 167.961792,88.230316 167.387863,87.795433 
	C167.972321,87.193443 168.548172,86.077950 169.142532,86.068001 
	C175.916931,85.954544 182.694977,85.967270 189.469086,86.098564 
	C190.025513,86.109352 190.560379,87.232948 191.105255,87.839478 
	C190.381989,88.274734 189.669739,89.062180 188.933578,89.085197 
	C185.466980,89.193565 181.993820,89.092316 178.031174,89.065956 
z"/>
<path fill="#232A2A" opacity="1.000000" stroke="none" 
	d="
M359.811859,94.871872 
	C359.400146,94.194763 358.988434,93.517647 359.061035,92.400276 
	C362.817413,91.960022 366.089417,91.960022 369.688171,91.960022 
	C369.688171,95.336960 369.688171,98.522232 369.688171,102.220146 
	C365.855011,98.711143 362.020447,100.134193 357.995056,101.355881 
	C358.224060,98.720444 358.643707,96.427528 359.526337,94.856171 
	C361.478149,100.638550 365.246460,96.684357 367.834076,97.983536 
	C367.982574,96.395157 368.090820,95.237450 368.264191,93.383354 
	C365.053040,93.948868 362.432434,94.410370 359.811859,94.871872 
z"/>
<path fill="#3E4444" opacity="1.000000" stroke="none" 
	d="
M359.974548,78.497543 
	C359.944611,78.172523 359.962830,77.850235 360.010803,77.288605 
	C361.257874,76.090492 362.523346,75.134468 362.887299,74.859505 
	C366.075287,75.851700 368.759766,76.687210 372.504669,77.852745 
	C371.629395,79.376900 370.665955,81.054520 369.322327,82.593933 
	C368.954498,82.262085 368.966888,82.068451 369.126221,81.539986 
	C368.587555,80.396637 367.996460,79.019287 367.198425,78.886612 
	C364.834259,78.493584 362.388428,78.591568 359.974548,78.497543 
z"/>
<path fill="#373B3B" opacity="1.000000" stroke="none" 
	d="
M215.619934,87.018372 
	C216.171631,86.367203 216.826019,86.041100 217.480408,85.714989 
	C219.254379,89.515846 221.034378,93.313972 222.766891,97.133629 
	C222.809418,97.227417 222.325073,97.560196 221.121765,98.676254 
	C219.221893,94.688431 217.472260,91.015930 215.619934,87.018372 
z"/>
<path fill="#353A3A" opacity="1.000000" stroke="none" 
	d="
M200.718063,94.705582 
	C199.461029,95.976936 198.416733,96.937553 197.372437,97.898163 
	C197.137756,97.584076 196.903061,97.269989 196.668381,96.955902 
	C198.604645,92.997284 200.540894,89.038666 202.477142,85.080040 
	C203.035675,85.263222 203.594193,85.446411 204.152710,85.629593 
	C203.078735,88.551338 202.004776,91.473083 200.718063,94.705582 
z"/>
<path fill="#323937" opacity="1.000000" stroke="none" 
	d="
M326.095276,96.394279 
	C328.567749,93.841919 330.863861,91.603401 333.342651,89.687584 
	C329.841248,97.508240 326.140991,100.781120 321.374176,99.944313 
	C323.181152,98.657608 324.550049,97.682869 326.095276,96.394279 
z"/>
<path fill="#E3E9E9" opacity="1.000000" stroke="none" 
	d="
M323.389343,88.199921 
	C325.387695,86.694527 327.317291,85.503456 329.551331,84.124451 
	C331.409424,85.737831 330.559448,87.732086 324.363190,92.955597 
	C323.365723,92.414406 322.724060,91.831978 321.980957,90.933014 
	C322.359833,89.915733 322.840210,89.214996 323.389343,88.199921 
z"/>
<path fill="#2A3131" opacity="1.000000" stroke="none" 
	d="
M334.579346,79.100906 
	C334.821136,79.692993 334.636597,80.206078 334.213379,80.864822 
	C331.286469,82.640503 327.055359,78.911568 324.694214,83.400055 
	C324.014313,83.089668 323.867462,82.908173 323.720581,82.726669 
	C323.646698,82.348854 323.572815,81.971031 323.208313,81.621620 
	C322.048523,81.239922 321.179291,80.829811 320.168518,80.162796 
	C320.920227,79.997749 321.813507,80.089607 323.174866,80.616936 
	C324.032410,80.694611 324.421875,80.336815 324.811340,79.979027 
	C325.763000,78.237411 326.714661,76.495789 327.666321,74.754166 
	C327.941742,74.849152 328.217133,74.944138 328.492523,75.039124 
	C328.386627,76.226860 328.280731,77.414604 328.137421,79.021889 
	C330.292053,79.021889 332.222534,79.021889 334.579346,79.100906 
z"/>
<path fill="#232A2A" opacity="1.000000" stroke="none" 
	d="
M368.979279,81.874817 
	C368.966888,82.068451 368.954498,82.262085 368.978638,82.744461 
	C369.015198,84.828384 369.015198,86.623566 369.015198,88.686203 
	C365.981201,88.976265 362.984314,89.262779 359.522461,89.535667 
	C358.678711,88.484909 358.299927,87.447792 357.880005,86.297989 
	C361.169189,86.646027 363.789093,86.923241 366.289276,87.187798 
	C368.293732,82.570511 365.214355,83.192993 362.403687,82.779373 
	C361.964600,82.263786 361.972107,82.081764 362.415283,81.835403 
	C364.893707,81.805656 366.936493,81.840240 368.979279,81.874817 
z"/>
<path fill="#3E4444" opacity="1.000000" stroke="none" 
	d="
M354.013672,77.551331 
	C351.715973,80.839821 349.863037,81.230621 348.794739,76.542824 
	C351.503143,71.526276 352.645599,74.871521 354.013672,77.551331 
z"/>
<path fill="#2A3131" opacity="1.000000" stroke="none" 
	d="
M312.632812,84.157120 
	C313.910675,84.375237 314.888062,84.770569 315.933167,85.500275 
	C314.391296,86.280205 311.838898,89.031113 312.632812,84.157120 
z"/>
<path fill="#3E4444" opacity="1.000000" stroke="none" 
	d="
M344.743225,79.773193 
	C345.469025,80.342628 345.934296,80.975067 346.125061,81.833214 
	C345.161560,81.850876 344.472626,81.642830 343.783661,81.434769 
	C344.016663,80.901917 344.249664,80.369057 344.743225,79.773193 
z"/>
<path fill="#282F2E" opacity="1.000000" stroke="none" 
	d="
M318.166931,74.402809 
	C318.938019,74.615379 319.428192,75.213982 319.918365,75.812592 
	C319.585144,76.084389 319.251953,76.356194 318.918732,76.627991 
	C318.574493,76.014938 318.230255,75.401886 318.166931,74.402809 
z"/>
<path fill="#E3E9E9" opacity="1.000000" stroke="none" 
	d="
M324.428162,80.076706 
	C324.421875,80.336815 324.032410,80.694611 323.479492,80.766769 
	C323.559052,80.378883 323.802032,80.276634 324.428162,80.076706 
z"/>
<path fill="#F0F3F3" opacity="1.000000" stroke="none" 
	d="
M194.508484,58.645164 
	C191.792862,59.357742 189.409653,59.830154 186.536652,60.399658 
	C186.536652,54.619656 186.536652,49.456379 186.536652,44.165485 
	C190.373749,43.561165 194.143005,43.477489 196.116608,47.377968 
	C198.013062,51.125977 197.946075,55.040806 194.508484,58.645164 
z"/>
<path fill="#D3D8D9" opacity="1.000000" stroke="none" 
	d="
M114.349396,59.175995 
	C107.447784,60.237591 111.327324,55.747585 110.556999,53.473961 
	C116.350647,53.625145 117.218567,54.904942 114.349396,59.175995 
z"/>
<path fill="#DADEDF" opacity="1.000000" stroke="none" 
	d="
M369.126221,81.539986 
	C366.936493,81.840240 364.893707,81.805656 362.104309,81.707039 
	C360.290924,81.330109 359.224121,81.017220 358.157349,80.704323 
	C358.561890,80.039978 358.966461,79.375633 359.672791,78.604416 
	C362.388428,78.591568 364.834259,78.493584 367.198425,78.886612 
	C367.996460,79.019287 368.587555,80.396637 369.126221,81.539986 
z"/>
<path fill="#3E4444" opacity="1.000000" stroke="none" 
	d="
M358.110535,81.129463 
	C359.224121,81.017220 360.290924,81.330109 361.668671,81.771362 
	C361.972107,82.081764 361.964600,82.263786 361.979370,82.718170 
	C360.875732,83.344116 359.749878,83.697708 358.342285,83.658585 
	C358.061615,82.695450 358.062653,82.125023 358.110535,81.129463 
z"/>
<path fill="#F4FAF9" opacity="1.000000" stroke="none" 
	d="
M359.825867,94.824127 
	C362.432434,94.410370 365.053040,93.948868 368.264191,93.383354 
	C368.090820,95.237450 367.982574,96.395157 367.834076,97.983536 
	C365.246460,96.684357 361.478149,100.638550 359.939880,95.134201 
	C359.890472,94.690674 359.839905,94.776382 359.825867,94.824127 
z"/>
<path fill="#2A3131" opacity="1.000000" stroke="none" 
	d="
M324.355652,83.562401 
	C323.959534,84.305519 323.368927,84.757385 322.778320,85.209259 
	C322.568237,85.040764 322.358154,84.872261 322.148071,84.703758 
	C322.494080,84.150276 322.840057,83.596794 323.453308,82.884995 
	C323.867462,82.908173 324.014313,83.089668 324.355652,83.562401 
z"/>
</svg>